<svg xmlns="http://www.w3.org/2000/svg" width="40.769" height="36.051" viewBox="0 0 40.769 36.051"><g transform="translate(1 1)"><path d="M-111.877,15.533h-12.307a3.676,3.676,0,0,0-3.671,3.672V26.55H-135.2a3.676,3.676,0,0,0-3.672,3.672v8.57a6.125,6.125,0,0,0,6.125,6.125h24.483a3.675,3.675,0,0,0,3.671-3.672v-18.6" transform="translate(138.872 -10.865)" fill="none" stroke="#f6f7fa" stroke-linecap="round" stroke-linejoin="round" stroke-width="2"/><line y2="18.362" transform="translate(11.017 15.684)" fill="none" stroke="#f6f7fa" stroke-linecap="round" stroke-linejoin="round" stroke-width="2"/><line x2="5.807" transform="translate(14.897 24.865)" fill="none" stroke="#f6f7fa" stroke-linecap="round" stroke-linejoin="round" stroke-width="2"/><line x2="11.785" transform="translate(14.897 29.158)" fill="none" stroke="#f6f7fa" stroke-linecap="round" stroke-linejoin="round" stroke-width="2"/><path d="M-70.111,5.882-71.5,4.5a2.709,2.709,0,0,0-1.655-.79c-.076-.007-.151,0-.227,0h0a2.09,2.09,0,0,0-1.482.606L-86.816,16.268l-.033.032a2.048,2.048,0,0,0-.53.866,7.681,7.681,0,0,0-.379,1.179,7.755,7.755,0,0,0-.152,3.116,1.067,1.067,0,0,0,.844.844,7.769,7.769,0,0,0,3.116-.152,7.569,7.569,0,0,0,1.168-.379,2.084,2.084,0,0,0,.866-.541c.013-.014.019-.018.032-.032L-69.916,9.246A2.391,2.391,0,0,0-70.111,5.882ZM-83.332,19.719c.022-.033-.1.075-.26.141a5.616,5.616,0,0,1-.844.27,6.663,6.663,0,0,1-1.471.163,6.637,6.637,0,0,1,.162-1.461,5.649,5.649,0,0,1,.281-.855c.05-.117.094-.188.1-.206l9.824-9.835,1.991,2ZM-71.387,7.775l-.693.693-1.991-2,.681-.681c-.007.007.17-.069.422.184.461.466.928.925,1.4,1.385C-71.319,7.606-71.395,7.782-71.387,7.775Z" transform="translate(108.076 -3.704)" fill="#f6f7fa" stroke="rgba(0,0,0,0)" stroke-width="2"/></g></svg>