<svg xmlns="http://www.w3.org/2000/svg" width="1113.034" height="2464.114" viewBox="0 0 1113.034 2464.114">
<path d="m1058.2 14.55c205.52 593.79-217.51 1038.9-290.03 1109.55c-1.38 1.45-2.24 3.3-2.46 5.29c-0.22 1.98 0.22 3.98 1.24 5.69c1.03 1.71 2.59 3.04 4.44 3.78c1.85 0.74 3.9 0.85 5.82 0.32c34.91-8.97 106.38-61.52 139.32-86.78c1.2-1.14 2.74-1.85 4.38-2.03c1.64-0.18 3.3 0.19 4.72 1.05c1.41 0.86 2.51 2.16 3.11 3.69c0.6 1.54 0.68 3.23 0.23 4.82c-50.21 208.31-158.55 343.71-523.9 629.45c-477.83 367.08-312.42 774.73-312.42 774.73c0 0-523.15-1369.72 929.73-2459.21c2.84-2.21 6.15-3.73 9.67-4.44c3.52-0.71 7.17-0.6 10.64 0.34c3.47 0.94 6.68 2.66 9.37 5.05c2.69 2.39 4.79 5.36 6.13 8.7" transform="translate(-6.668 -10.23)" fill="#00685A"/>
</svg>