<svg xmlns="http://www.w3.org/2000/svg" width="62.392" height="45.834" viewBox="0 0 62.392 45.834"><path d="M61.272,7.319A6.2,6.2,0,0,0,56.882,5.5H7.209A6.211,6.211,0,0,0,1,11.709V44.825a6.211,6.211,0,0,0,6.209,6.209H56.882a6.211,6.211,0,0,0,6.209-6.209V11.709A6.2,6.2,0,0,0,61.272,7.319ZM54,9.639,39.344,20.69A12.874,12.874,0,0,1,23.591,20.5L9.914,9.639Zm4.951,35.185a2.07,2.07,0,0,1-2.07,2.07H7.209a2.07,2.07,0,0,1-2.07-2.07V11.709a2.034,2.034,0,0,1,.1-.5c2.8,2.223,9.881,7.842,15.78,12.524A17.012,17.012,0,0,0,41.836,24L58.845,11.171a1.988,1.988,0,0,1,.108.538Z" transform="translate(-0.85 -5.35)" fill="#174674" stroke="#174674" stroke-width="0.3" fill-rule="evenodd"/></svg>