<svg xmlns="http://www.w3.org/2000/svg" width="76.347" height="67.025" viewBox="0 0 76.347 67.025"><path d="M81.365,60.078h-25.8a2.4,2.4,0,0,0,.074-.565V47.323a6.932,6.932,0,0,0-6.922-6.928h-.951V32.134a13.538,13.538,0,0,0-27.076,0v8.284a6.928,6.928,0,0,0-6.464,6.9V69.118a6.932,6.932,0,0,0,6.922,6.928h5.159a2.4,2.4,0,1,0,0-4.8H21.151a2.125,2.125,0,0,1-2.119-2.126V47.323A2.125,2.125,0,0,1,21.151,45.2H48.72a2.125,2.125,0,0,1,2.119,2.126v12.19a2.4,2.4,0,0,0,.074.565H40.156a9.22,9.22,0,0,0-9.207,9.211v7.122a9.22,9.22,0,0,0,9.207,9.211H81.366a9.222,9.222,0,0,0,9.21-9.211V69.288A9.223,9.223,0,0,0,81.365,60.078ZM34.231,23.4a8.744,8.744,0,0,1,8.736,8.736v8.261H25.5V32.134A8.744,8.744,0,0,1,34.231,23.4ZM85.774,76.412a4.415,4.415,0,0,1-4.408,4.408H40.156a4.413,4.413,0,0,1-4.405-4.408V69.289a4.413,4.413,0,0,1,4.405-4.408h41.21a4.415,4.415,0,0,1,4.408,4.408Z" transform="translate(-14.229 -18.596)" fill="#174674"/><path d="M43.183,66.294a3.355,3.355,0,1,0,3.355,3.355A3.356,3.356,0,0,0,43.183,66.294Z" transform="translate(-12.51 -15.393)" fill="#174674"/><path d="M52.71,66.294a3.355,3.355,0,1,0,3.355,3.355A3.356,3.356,0,0,0,52.71,66.294Z" transform="translate(-11.87 -15.393)" fill="#174674"/><ellipse cx="3.357" cy="3.357" rx="3.357" ry="3.357" transform="translate(47.647 50.897)" fill="#174674"/><path d="M71.762,66.3a3.355,3.355,0,1,0,3.352,3.352A3.352,3.352,0,0,0,71.762,66.3Z" transform="translate(-10.59 -15.392)" fill="#174674"/></svg>