<svg xmlns="http://www.w3.org/2000/svg" width="79.027" height="63.372" viewBox="0 0 79.027 63.372"><g transform="translate(0 0)"><path d="M69.793,31.6a2.271,2.271,0,0,0,0,4.542,15.215,15.215,0,0,1,0,30.43H47.765l8.629-9.992a2.447,2.447,0,0,0-.227-3.293,2.3,2.3,0,0,0-3.179.227L41.861,66.458a2.388,2.388,0,0,0,0,2.952L52.988,82.354a2.043,2.043,0,0,0,1.7.795,2.391,2.391,0,0,0,1.476-.568,2.3,2.3,0,0,0,.227-3.179l-7.04-8.289H69.793a19.757,19.757,0,0,0,0-39.513Z" transform="translate(-10.523 -19.777)" fill="#174674"/><path d="M33.957,67.982a15.215,15.215,0,1,1,0-30.43H55.984l-8.629,9.992a2.447,2.447,0,0,0,.227,3.293,2.158,2.158,0,0,0,3.066-.114l.114-.114L61.888,37.666a2.388,2.388,0,0,0,0-2.952L50.761,21.77a2.3,2.3,0,0,0-3.179.114,2.391,2.391,0,0,0-.227,2.839l7.04,8.289H33.957a19.757,19.757,0,1,0,0,39.513,2.271,2.271,0,1,0,0-4.542Z" transform="translate(-14.2 -21.187)" fill="#174674"/></g></svg>