<svg xmlns="http://www.w3.org/2000/svg" width="72.544" height="59.114" viewBox="0 0 72.544 59.114"><path d="M76.839,44.746a2.346,2.346,0,0,0-1.385-2.116L41.529,27.4a2.347,2.347,0,0,0-1.921,0L5.684,42.63a2.346,2.346,0,0,0-.044,4.26l7.933,3.76L5.685,54.19a2.346,2.346,0,0,0-.044,4.26l7.931,3.759L5.684,65.75a2.346,2.346,0,0,0-.044,4.26L39.565,86.086a2.345,2.345,0,0,0,2.009,0L75.5,70.009a2.346,2.346,0,0,0-.044-4.26l-7.887-3.541L75.5,58.449a2.346,2.346,0,0,0-.044-4.26l-7.887-3.541,7.933-3.76A2.346,2.346,0,0,0,76.839,44.746Zm-7.946,23.2L40.569,81.371,12.244,67.948l6.9-3.1,20.419,9.676a2.345,2.345,0,0,0,2.009,0L61.994,64.85Zm0-11.56L40.569,69.811,12.244,56.388l6.9-3.1,20.419,9.676a2.347,2.347,0,0,0,2.009,0L61.994,53.29ZM40.569,58.25,12.244,44.828,40.569,32.114,68.893,44.828Z" transform="translate(-4.298 -27.199)" fill="#174674"/></svg>