<svg xmlns="http://www.w3.org/2000/svg" width="43.223" height="52.458" viewBox="0 0 43.223 52.458"><g transform="translate(-2.817)"><path d="M15,52.458H33.859a7.077,7.077,0,0,0,7.07-7.069V9.888h3.362a1.748,1.748,0,0,0,0-3.5H33.084a7.054,7.054,0,0,0-7-6.392H22.774a7.054,7.054,0,0,0-7,6.392H4.565a1.748,1.748,0,0,0,0,3.5H7.927v35.5A7.077,7.077,0,0,0,15,52.458ZM22.774,3.5h3.308a3.577,3.577,0,0,1,3.508,2.9H19.266A3.577,3.577,0,0,1,22.774,3.5ZM37.431,9.888v35.5a3.576,3.576,0,0,1-3.572,3.572H15a3.576,3.576,0,0,1-3.572-3.572V9.888Z" fill="#fff"/><path d="M13.4,37.716a1.75,1.75,0,0,0,1.749-1.749V11.024a1.749,1.749,0,0,0-3.5,0V35.967A1.75,1.75,0,0,0,13.4,37.716Z" transform="translate(5.645 5.93)" fill="#fff"/><path d="M19.969,37.716a1.75,1.75,0,0,0,1.749-1.749V11.024a1.749,1.749,0,1,0-3.5,0V35.967A1.75,1.75,0,0,0,19.969,37.716Z" transform="translate(9.848 5.93)" fill="#fff"/></g></svg>