<svg xmlns="http://www.w3.org/2000/svg" width="41.037" height="34.28" viewBox="0 0 41.037 34.28"><g transform="translate(0.25 0.25)"><g transform="translate(0)"><path d="M19.1,20.719V1.2A1.206,1.206,0,0,1,20.284,0a1.192,1.192,0,0,1,1.185,1.2V20.689l4.659-4.662a1.191,1.191,0,0,1,1.685,1.685L21.2,24.326a1.064,1.064,0,0,1-.083.092,1.2,1.2,0,0,1-1.694,0,1.063,1.063,0,0,1-.083-.092l-6.614-6.614a1.191,1.191,0,0,1,1.685-1.685ZM0,32.654a1.132,1.132,0,0,1,1.126-1.126H39.411a1.126,1.126,0,1,1,0,2.252H1.126A1.138,1.138,0,0,1,0,32.654Z" fill="#174674" stroke="#fff" stroke-width="0.5" fill-rule="evenodd"/></g></g></svg>