<svg xmlns="http://www.w3.org/2000/svg" width="41.64" height="52.458" viewBox="0 0 41.64 52.458"><path d="M50.739,5.264A3.364,3.364,0,0,0,47.375,1.9h-36A2.273,2.273,0,0,0,9.1,4.173h0V52.085a2.273,2.273,0,0,0,2.273,2.273h0a2.273,2.273,0,0,0,2.273-2.273V32.63h33.73a3.364,3.364,0,0,0,3.364-3.364h0a3.309,3.309,0,0,0-1.291-2.646L37.711,17.265l11.71-9.328A3.3,3.3,0,0,0,50.739,5.264ZM34.8,13.81a4.437,4.437,0,0,0,0,6.973l9.192,7.3H13.646V6.446H43.993Z" transform="translate(-9.1 -1.9)" fill="#fff"/></svg>