<svg xmlns="http://www.w3.org/2000/svg" width="38.352" height="42.834" viewBox="0 0 38.352 42.834"><g transform="translate(1.25 1.25)"><path d="M-221.591,46.464a6.2,6.2,0,0,0,6.2-5.861h-12.391A6.206,6.206,0,0,0-221.591,46.464Z" transform="translate(239.518 -6.13)" fill="none" stroke="#679434" stroke-linecap="round" stroke-linejoin="round" stroke-width="2.5"/><path d="M-203.37,45.353V37.079a13.8,13.8,0,0,0-8.963-12.921v-.182a4.824,4.824,0,0,0-4.826-4.823,4.828,4.828,0,0,0-4.826,4.823v.182a13.794,13.794,0,0,0-8.963,12.921l0,8.274a4.14,4.14,0,0,0-4.138,4.137v2.072a2.066,2.066,0,0,0,2.07,2.065H-201.3a2.071,2.071,0,0,0,2.07-2.065V49.489A4.141,4.141,0,0,0-203.37,45.353Z" transform="translate(235.086 -19.153)" fill="none" stroke="#679434" stroke-linecap="round" stroke-linejoin="round" stroke-width="2.5"/></g></svg>