<svg xmlns="http://www.w3.org/2000/svg" width="42.863" height="42.821" viewBox="0 0 42.863 42.821"><g transform="translate(-4.698 -4.763)"><path d="M37.838,31.868c-2.735-.957-4.265-1.014-5.295-.158a5.8,5.8,0,0,0-1.828,3.86,6.771,6.771,0,0,1-.179.857l-.013.012c-.58-.068-2.011-.7-7.959-6.65-5.917-5.917-6.578-7.371-6.652-7.963l.012-.011a6.786,6.786,0,0,1,.874-.183,5.775,5.775,0,0,0,3.843-1.824c.836-1.006.79-2.59-.156-5.3-.031-.088-3.322-8.832-5.918-9.378a5.3,5.3,0,0,0-1.1-.123,5.237,5.237,0,0,0-2.838.956l-.206.121a13.131,13.131,0,0,0-4.9,5.29C3.845,15.81,5.958,26.52,15.9,36.458,23.915,44.477,32.4,47.334,37.672,47.334a9.579,9.579,0,0,0,3.3-.5,13.112,13.112,0,0,0,5.29-4.9l.119-.2a4.915,4.915,0,0,0,.835-3.945C46.669,35.188,37.925,31.9,37.838,31.868Zm7.112,9.019-.12.2a11.577,11.577,0,0,1-4.445,4.191,7.742,7.742,0,0,1-2.713.393c-4.938,0-12.943-2.73-20.6-10.39C6.856,25.071,5.926,15,7.07,11.966a11.574,11.574,0,0,1,4.189-4.444l.207-.122a3.73,3.73,0,0,1,2-.727,3.63,3.63,0,0,1,.761.088c.95.233,3.567,5.071,4.694,8.3.475,1.358.937,3.1.446,3.689A4.319,4.319,0,0,1,16.512,20a3.079,3.079,0,0,0-1.7.586,1.4,1.4,0,0,0-.564,1.053c0,1.272.508,2.686,7.147,9.325,6.619,6.618,8.083,7.144,9.323,7.144a1.4,1.4,0,0,0,1.051-.564,3.11,3.11,0,0,0,.59-1.719A4.3,4.3,0,0,1,33.6,32.988a1.1,1.1,0,0,1,.794-.211,9.634,9.634,0,0,1,2.893.658c3.228,1.126,8.066,3.743,8.3,4.694A3.256,3.256,0,0,1,44.95,40.887Z" fill="#707070" stroke="#707070" stroke-width="0.5"/></g></svg>