<svg xmlns="http://www.w3.org/2000/svg" width="98.358" height="103.055" viewBox="0 0 98.358 103.055"><g transform="translate(-8 -6)"><path d="M76.972,7H27.465A2.464,2.464,0,0,0,25,9.465V105.59a2.464,2.464,0,0,0,2.465,2.465H98.943a2.464,2.464,0,0,0,2.465-2.465V31.436a2.466,2.466,0,0,0-.722-1.743L78.715,7.722A2.466,2.466,0,0,0,76.972,7Z" transform="translate(3.95)" fill="#fff" stroke="#979593" stroke-miterlimit="10" stroke-width="2"/><path d="M67,7V29.183a2.464,2.464,0,0,0,2.465,2.465H91.648" transform="translate(13.71)" fill="none" stroke="#979593" stroke-miterlimit="10" stroke-width="2"/><path d="M62,34A18.486,18.486,0,0,1,80.486,52.486H62Z" transform="translate(12.549 6.274)" fill="#f5ba9d"/><path d="M87.225,54.95A20.953,20.953,0,1,1,66.274,34V54.95Zm2.465,30.81H34.232a1.232,1.232,0,1,0,0,2.465H89.689a1.232,1.232,0,1,0,0-2.465Zm0-6.162H34.232a1.232,1.232,0,1,0,0,2.465H89.689a1.232,1.232,0,1,0,0-2.465Z" transform="translate(5.81 6.274)" fill="#c8c6c4"/><path d="M12.93,83.3H52.366a4.93,4.93,0,0,0,4.93-4.93V38.93A4.93,4.93,0,0,0,52.366,34H12.93A4.93,4.93,0,0,0,8,38.93V78.366A4.93,4.93,0,0,0,12.93,83.3Z" transform="translate(0 6.274)" fill="#c43e1c"/><path d="M32.144,42q5.463,0,8.368,2.446t2.9,7.084a9.852,9.852,0,0,1-1.436,5.3A9.621,9.621,0,0,1,37.9,60.433a13.893,13.893,0,0,1-6.135,1.285h-5.6V72.81H20V42ZM26.161,56.789H31.05A6.362,6.362,0,0,0,35.369,55.5a4.758,4.758,0,0,0,1.459-3.764q0-4.806-5.6-4.808h-5.07Z" transform="translate(2.789 8.133)" fill="#fff"/></g></svg>