<svg xmlns="http://www.w3.org/2000/svg" width="46.871" height="46.871" viewBox="0 0 46.871 46.871"><path d="M42.72,0H3.151A3.158,3.158,0,0,0,0,3.151V42.72a3.158,3.158,0,0,0,3.151,3.151H42.72a3.158,3.158,0,0,0,3.151-3.151V3.151A3.158,3.158,0,0,0,42.72,0ZM38.351,2.256v17.3H9.024V2.256ZM43.615,42.72a.9.9,0,0,1-.895.895H3.151a.9.9,0,0,1-.895-.895h0V3.151a.9.9,0,0,1,.895-.895H6.768V21.807H40.607V2.256H42.72a.9.9,0,0,1,.895.895h0Zm-9.024-36.7H27.823V17.3h6.768ZM32.335,15.04H30.079V8.272h2.256Z" transform="translate(0.5 0.5)" fill="#174674" stroke="#174674" stroke-width="1"/></svg>