<svg xmlns="http://www.w3.org/2000/svg" width="43.862" height="30.146" viewBox="0 0 43.862 30.146"><path d="M98.862,124.286h0A4.286,4.286,0,0,0,94.576,120H60.286A4.286,4.286,0,0,0,56,124.286V144.86a4.286,4.286,0,0,0,4.286,4.286h34.29a4.286,4.286,0,0,0,4.286-4.286Zm-38.576-2.572h34.29a2.572,2.572,0,0,1,2.534,2.143L78.857,136.021a2.564,2.564,0,0,1-2.852,0L57.752,123.858A2.572,2.572,0,0,1,60.286,121.714Zm34.29,25.717H60.286a2.572,2.572,0,0,1-2.572-2.572V125.894l17.339,11.553a4.276,4.276,0,0,0,4.756,0l17.339-11.553V144.86A2.572,2.572,0,0,1,94.576,147.432Z" transform="translate(-55.5 -119.5)" fill="#707070" stroke="#707070" stroke-width="1"/></svg>