<svg xmlns="http://www.w3.org/2000/svg" width="59.534" height="59.526" viewBox="0 0 59.534 59.526"><g transform="translate(2.012 2.012)"><path d="M50.278,50.208a6.337,6.337,0,0,1-2.037-3.643,6.165,6.165,0,0,1,1.92-3.707,6.853,6.853,0,0,0-5.074-11.709,6.27,6.27,0,0,1-4.015-1.138,6.225,6.225,0,0,1-1.265-3.991,6.855,6.855,0,0,0-11.881-4.686,6.176,6.176,0,0,1-3.641,2.037,6.311,6.311,0,0,1-3.687-1.92,7.087,7.087,0,0,0-7.587-1.466,7.064,7.064,0,0,0-4.137,6.522,6.269,6.269,0,0,1-1.138,4.026,6.318,6.318,0,0,1-3.991,1.26,7.069,7.069,0,0,0-6.4,4.325,7.1,7.1,0,0,0,1.71,7.532A6.3,6.3,0,0,1,1.1,47.305a6.262,6.262,0,0,1-1.92,3.707A7.08,7.08,0,0,0-2.291,58.6a7.09,7.09,0,0,0,6.518,4.13,6.325,6.325,0,0,1,4.024,1.149,6.258,6.258,0,0,1,1.26,3.98,7.028,7.028,0,0,0,4.325,6.4,6.46,6.46,0,0,0,2.421.443,6.934,6.934,0,0,0,5.162-2.148,6.193,6.193,0,0,1,3.643-2.037,6.306,6.306,0,0,1,3.7,1.933A7.065,7.065,0,0,0,36.337,73.9a7.136,7.136,0,0,0,4.13-6.529,6.334,6.334,0,0,1,1.138-4.024,6.2,6.2,0,0,1,3.98-1.26h.179a6.86,6.86,0,0,0,4.513-11.875Z" transform="translate(3.09 -19.183)" fill="none" stroke="#0c3c66" stroke-linecap="round" stroke-linejoin="round" stroke-width="4"/><path d="M15.886,26.4A11.763,11.763,0,1,0,27.659,38.159,11.763,11.763,0,0,0,15.886,26.4Z" transform="translate(11.861 -10.411)" fill="none" stroke="#0c3c66" stroke-linecap="round" stroke-linejoin="round" stroke-width="4"/></g></svg>