<svg xmlns="http://www.w3.org/2000/svg"
    width="1.21111in" height="1.18889in"
    viewBox="0 0 109 107">
    <path id="Selection"
        fill="white"
        d="M 47.00,4.43
           C 68.60,1.76 90.08,10.20 100.68,30.00
             115.95,58.53 99.17,97.87 66.00,102.70
             49.49,105.11 31.78,102.32 19.01,90.82
             0.67,74.29 -2.69,43.75 12.53,24.00
             21.82,11.94 32.39,6.82 47.00,4.43 Z
           M 60.00,51.00
           C 60.00,51.00 60.00,31.00 60.00,31.00
             60.00,31.00 58.40,25.02 58.40,25.02
             58.40,25.02 50.00,24.00 50.00,24.00
             50.00,24.00 50.00,51.00 50.00,51.00
             50.00,51.00 23.00,51.00 23.00,51.00
             23.00,51.00 23.00,61.00 23.00,61.00
             23.00,61.00 50.00,61.00 50.00,61.00
             50.00,61.00 50.00,88.00 50.00,88.00
             50.00,88.00 58.40,86.98 58.40,86.98
             58.40,86.98 60.00,79.00 60.00,79.00
             60.00,79.00 60.00,61.00 60.00,61.00
             60.00,61.00 86.00,61.00 86.00,61.00
             86.00,61.00 86.00,51.00 86.00,51.00
             86.00,51.00 60.00,51.00 60.00,51.00 Z" />
</svg>
