<svg xmlns="http://www.w3.org/2000/svg"
    width="1.2in" height="1.22222in"
    viewBox="0 0 108 110">
    <path id="Selection"
        fill="white"
        d="M 46.00,5.43
           C 68.16,2.69 89.52,11.53 100.02,32.00
             112.52,56.36 102.35,87.07 78.00,99.24
             73.73,101.38 69.77,103.01 65.00,103.70
             50.26,105.85 34.32,104.06 22.00,95.07
             0.28,79.22 -5.05,46.52 11.53,25.00
             21.21,12.43 30.86,7.91 46.00,5.43 Z
           M 85.00,50.00
           C 85.00,50.00 18.00,50.00 18.00,50.00
             18.00,50.00 18.00,64.00 18.00,64.00
             18.00,64.00 85.00,64.00 85.00,64.00
             85.00,64.00 85.00,50.00 85.00,50.00 Z" />
</svg>
