<?xml version='1.0' encoding='iso-8859-1'?>
<svg version="1.1" xmlns="http://www.w3.org/2000/svg" viewBox="0 0 490.075 490.075" xmlns:xlink="http://www.w3.org/1999/xlink" enable-background="new 0 0 490.075 490.075">
    <g>
        <g>
            <path d="m485.829,167.175l-235-165.6c-4.2-2.1-9.4-2.1-12.5,0l-234.3,165.9c-2.4,1.8-3.9,4.8-3.9,8.4v303.7c0,6.3 4.2,10.4 10.4,10.4h83.6c6.3,0 10.4-4.2 10.4-10.4v-189.9h281v189.9c0,6.3 4.2,10.4 10.4,10.4h83.6c5.2,0 10.4-4.2 10.4-10.4v-303.6c0.2-3.9-1.4-7-4.1-8.8zm-241.2-144.7l201.6,143h-404.3l202.7-143zm223.6,446.7h-62.7v-189.9c0-6.3-4.2-10.4-10.4-10.4h-302c-6.3,0-10.4,4.2-10.4,10.4v189.9h-62.7v-282.8h448.2v282.8z"/>
            <path d="m138.029,490.075h212.1v-161.8h-212.1v161.8zm20.9-140.9h75.2v37.6h20.9v-37.6h74.2v120h-170.3v-120z"/>
        </g>
    </g>
</svg>
